<svg xmlns="http://www.w3.org/2000/svg" width="200" height="200" fill="none" viewBox="0 0 200 200">
  <mask id="a" fill="#fff">
    <path fill-rule="evenodd" d="M45 153h13v26a6 6 0 0 0 8.65 5.383L130.397 153H155c17.673 0 32-14.327 32-32V46c0-17.673-14.327-32-32-32H45c-17.673 0-32 14.327-32 32v75c0 17.673 14.327 32 32 32ZM155 26H45c-11.046 0-20 8.954-20 20v75c0 11.046 8.954 20 20 20h23v31l62.861-31H155c11.046 0 20-8.954 20-20V46c0-11.046-8.954-20-20-20Z" clip-rule="evenodd"/>
    <path d="M74 87c0 8.837-7.163 16-16 16s-16-7.163-16-16 7.163-16 16-16 16 7.163 16 16Zm42 0c0 8.837-7.163 16-16 16s-16-7.163-16-16 7.163-16 16-16 16 7.163 16 16Zm42 0c0 8.837-7.163 16-16 16s-16-7.163-16-16 7.163-16 16-16 16 7.163 16 16Z"/>
  </mask>
  <path fill="#000" d="M58 153h8a8 8 0 0 0-8-8v8Zm8.65 31.383-3.533-7.177 3.533 7.177ZM130.397 153v-8a7.995 7.995 0 0 0-3.534.823l3.534 7.177ZM68 141h8a8 8 0 0 0-8-8v8Zm0 31h-8a8 8 0 0 0 11.538 7.175L68 172Zm62.861-31v-8a7.994 7.994 0 0 0-3.538.825l3.538 7.175ZM58 145H45v16h13v-16Zm8 34v-26H50v26h16Zm-.943-1.698A2 2 0 0 1 66 179H50a14 14 0 0 0 6.603 11.886l8.454-13.584Zm-1.94-.096a1.998 1.998 0 0 1 1.94.096l-8.454 13.584a13.997 13.997 0 0 0 13.58.674l-7.066-14.354Zm63.746-31.383-63.746 31.383 7.067 14.354 63.746-31.383-7.067-14.354ZM155 145h-24.603v16H155v-16Zm24-24c0 13.255-10.745 24-24 24v16c22.091 0 40-17.909 40-40h-16Zm0-75v75h16V46h-16Zm-24-24c13.255 0 24 10.745 24 24h16c0-22.091-17.909-40-40-40v16ZM45 22h110V6H45v16ZM21 46c0-13.255 10.745-24 24-24V6C22.909 6 5 23.909 5 46h16Zm0 75V46H5v75h16Zm24 24c-13.255 0-24-10.745-24-24H5c0 22.091 17.909 40 40 40v-16Zm0-111h110V18H45v16ZM33 46c0-6.627 5.373-12 12-12V18c-15.464 0-28 12.536-28 28h16Zm0 75V46H17v75h16Zm12 12c-6.627 0-12-5.373-12-12H17c0 15.464 12.536 28 28 28v-16Zm23 0H45v16h23v-16Zm8 39v-31H60v31h16Zm51.323-38.175-62.861 31 7.076 14.35 62.861-31-7.076-14.35ZM155 133h-24.139v16H155v-16Zm12-12c0 6.627-5.373 12-12 12v16c15.464 0 28-12.536 28-28h-16Zm0-75v75h16V46h-16Zm-12-12c6.627 0 12 5.373 12 12h16c0-15.464-12.536-28-28-28v16ZM66 87a8 8 0 0 1-8 8v16c13.255 0 24-10.745 24-24H66Zm-8 8a8 8 0 0 1-8-8H34c0 13.255 10.745 24 24 24V95Zm-8-8a8 8 0 0 1 8-8V63c-13.255 0-24 10.745-24 24h16Zm8-8a8 8 0 0 1 8 8h16c0-13.255-10.745-24-24-24v16Zm50 8a8 8 0 0 1-8 8v16c13.255 0 24-10.745 24-24h-16Zm-8 8a8 8 0 0 1-8-8H76c0 13.255 10.745 24 24 24V95Zm-8-8a8 8 0 0 1 8-8V63c-13.255 0-24 10.745-24 24h16Zm8-8a8 8 0 0 1 8 8h16c0-13.255-10.745-24-24-24v16Zm50 8a8 8 0 0 1-8 8v16c13.255 0 24-10.745 24-24h-16Zm-8 8a8 8 0 0 1-8-8h-16c0 13.255 10.745 24 24 24V95Zm-8-8a8 8 0 0 1 8-8V63c-13.255 0-24 10.745-24 24h16Zm8-8a8 8 0 0 1 8 8h16c0-13.255-10.745-24-24-24v16Z" mask="url(#a)"/>
</svg>
