<svg xmlns="http://www.w3.org/2000/svg" width="200" height="200" fill="none" viewBox="0 0 200 200">
  <rect width="170" height="70.479" x="15" y="99.521" stroke="#000" stroke-width="12" rx="16"/>
  <path fill="#000" d="M20.934 34v40h-8.457V34h8.457ZM42.07 74H27.89V34h14.297c4.024 0 7.487.8 10.391 2.402 2.904 1.589 5.137 3.874 6.7 6.856 1.575 2.982 2.363 6.55 2.363 10.703 0 4.167-.788 7.747-2.364 10.742-1.562 2.995-3.808 5.293-6.738 6.895C49.623 73.199 46.134 74 42.071 74Zm-5.722-7.246h5.37c2.5 0 4.604-.443 6.31-1.328 1.718-.899 3.007-2.285 3.866-4.16.873-1.888 1.31-4.323 1.31-7.305 0-2.956-.437-5.371-1.31-7.246-.859-1.875-2.141-3.255-3.847-4.14-1.706-.886-3.809-1.329-6.309-1.329h-5.39v25.508Z"/>
</svg>
