<svg xmlns="http://www.w3.org/2000/svg" width="200" height="200" fill="none" viewBox="0 0 200 200">
  <path stroke="#000" stroke-linejoin="round" stroke-width="12" d="M133.28 47.784c0 18.659-15.133 33.784-33.8 33.784-18.667 0-33.8-15.125-33.8-33.784C65.68 29.126 80.813 14 99.48 14c18.667 0 33.8 15.126 33.8 33.784ZM178 185a80.888 80.888 0 0 0-5.937-30.432 79.645 79.645 0 0 0-16.909-25.799 77.91 77.91 0 0 0-25.305-17.238A76.693 76.693 0 0 0 100 105.477a76.695 76.695 0 0 0-29.85 6.054 77.916 77.916 0 0 0-25.304 17.238 79.641 79.641 0 0 0-16.909 25.799A80.871 80.871 0 0 0 22 185h156Z"/>
</svg>
