<svg xmlns="http://www.w3.org/2000/svg" width="200" height="200" fill="none" viewBox="0 0 200 200">
  <path fill="#000" d="m160.545 124.545 5.49 2.423.025-.059-5.515-2.364Zm2.7 14.891-4.289 4.196.047.047 4.242-4.243Zm.491.491-4.242 4.243.002.002 4.24-4.245Zm0 23.155-4.24-4.245-.005.005 4.245 4.24Zm-23.154 0 4.245-4.24-.003-.003-4.242 4.243Zm-.491-.491 4.243-4.243-.048-.046-4.195 4.289Zm-14.891-2.7 2.364 5.515.059-.026-2.423-5.489Zm-8.182 12.354-6-.023v.023h6Zm-32.727.655h6c0-.047 0-.094-.002-.14l-5.998.14Zm-8.837-12.355-2.422 5.49c.116.051.233.098.352.142l2.07-5.632Zm-14.89 2.7-4.196-4.289-.047.047 4.243 4.242Zm-.491.491-4.243-4.242-.002.002 4.245 4.24Zm-23.155 0 4.245-4.24-.005-.005-4.24 4.245Zm-4.8-11.577h6-6Zm4.8-11.577 4.24 4.245.003-.003-4.243-4.242Zm.491-.491 4.243 4.243.046-.048-4.289-4.195Zm2.7-14.891-5.515 2.364.026.059 5.49-2.423Zm-12.355-8.182.024-6h-.023v6ZM10 100.655H4h6Zm16.364-16.364v6-6Zm.736 0v6c.047 0 .093 0 .14-.002l-.14-5.998Zm12.355-8.837-5.49-2.422a5.974 5.974 0 0 0-.142.352l5.632 2.07Zm-2.7-14.89 4.289-4.196a6.857 6.857 0 0 0-.047-.047l-4.242 4.243Zm-.491-.491 4.242-4.243-.002-.002-4.24 4.245Zm0-23.155 4.24 4.245.005-.005-4.245-4.24Zm23.154 0-4.245 4.24.002.003 4.243-4.243Zm.491.491-4.243 4.243.048.046 4.195-4.289Zm14.891 2.7v-6a6 6 0 0 0-2.423.51l2.423 5.49Zm.654 0v6a6 6 0 0 0 2.364-.485l-2.364-5.515Zm8.182-12.355 6 .024v-.023h-6ZM100 10V4v6Zm16.364 17.1h-6v.024l6-.024Zm8.181 12.355 2.423-5.49-.059-.025-2.364 5.515Zm14.891-2.7 4.196 4.289.047-.047-4.243-4.242Zm.491-.491 4.243 4.242.002-.002-4.245-4.24Zm11.578-4.8v6-6Zm11.577 4.8-4.245 4.24.005.005 4.24-4.245Zm0 23.154-4.24-4.245-.003.003 4.243 4.242Zm-.491.491-4.243-4.242c-.015.015-.031.03-.046.047l4.289 4.195Zm-2.7 14.891h6a6 6 0 0 0-.511-2.423l-5.489 2.423Zm0 .654h-6c0 .813.165 1.617.485 2.364l5.515-2.364Zm12.354 8.182-.023 6h.023v-6Zm.655 32.728v-6h-.024l.024 6Zm-17.844 5.759a19.501 19.501 0 0 0-1.347 11.352l11.807-2.141a7.503 7.503 0 0 1 .519-4.366l-10.979-4.845Zm-1.347 11.352a19.501 19.501 0 0 0 5.247 10.157l8.579-8.391a7.508 7.508 0 0 1-2.019-3.907l-11.807 2.141Zm5.294 10.204.491.491 8.485-8.485-.491-.491-8.485 8.485Zm.493.493a10.374 10.374 0 0 1 2.25 3.364l11.085-4.595a22.379 22.379 0 0 0-4.854-7.259l-8.481 8.49Zm2.25 3.364c.521 1.258.79 2.607.79 3.969h12c0-2.939-.58-5.85-1.705-8.564l-11.085 4.595Zm.79 3.969c0 1.361-.269 2.71-.79 3.968l11.085 4.595a22.367 22.367 0 0 0 1.705-8.563h-12Zm-.79 3.968a10.374 10.374 0 0 1-2.25 3.364l8.481 8.49a22.379 22.379 0 0 0 4.854-7.259l-11.085-4.595Zm-2.255 3.369a10.356 10.356 0 0 1-3.363 2.249l4.595 11.085a22.358 22.358 0 0 0 7.258-4.854l-8.49-8.48Zm-3.363 2.249c-1.258.522-2.607.79-3.969.79v12c2.939 0 5.849-.579 8.564-1.705l-4.595-11.085Zm-3.969.79a10.36 10.36 0 0 1-3.969-.79l-4.595 11.085a22.354 22.354 0 0 0 8.564 1.705v-12Zm-3.969-.79a10.356 10.356 0 0 1-3.363-2.249l-8.49 8.48a22.358 22.358 0 0 0 7.258 4.854l4.595-11.085Zm-3.366-2.252-.49-.491-8.486 8.486.491.49 8.485-8.485Zm-.538-.537a19.5 19.5 0 0 0-10.156-5.248l-2.141 11.808a7.496 7.496 0 0 1 3.906 2.018l8.391-8.578Zm-10.156-5.248a19.505 19.505 0 0 0-11.353 1.348l4.846 10.978a7.502 7.502 0 0 1 4.366-.518l2.141-11.808Zm-11.294 1.322a19.506 19.506 0 0 0-8.576 7.156l10.005 6.626a7.501 7.501 0 0 1 3.299-2.752l-4.728-11.03Zm-8.576 7.156a19.5 19.5 0 0 0-3.242 10.69l12 .047a7.5 7.5 0 0 1 1.247-4.111l-10.005-6.626Zm-3.242 10.713v1.391h12v-1.391h-12Zm0 1.391c0 2.749-1.092 5.385-3.035 7.329l8.485 8.485a22.363 22.363 0 0 0 6.55-15.814h-12Zm-3.035 7.329a10.367 10.367 0 0 1-7.328 3.035v12a22.363 22.363 0 0 0 15.813-6.55l-8.485-8.485ZM100.655 184c-2.75 0-5.385-1.092-7.329-3.035l-8.485 8.485a22.364 22.364 0 0 0 15.814 6.55v-12Zm-7.329-3.035a10.365 10.365 0 0 1-3.035-7.329h-12c0 5.932 2.356 11.62 6.55 15.814l8.485-8.485Zm-3.035-7.329v-.736h-12v.736h12Zm-.002-.876a19.498 19.498 0 0 0-3.634-10.888l-9.76 6.981a7.498 7.498 0 0 1 1.398 4.187l11.996-.28Zm-3.634-10.888a19.5 19.5 0 0 0-9.13-6.958l-4.142 11.263a7.498 7.498 0 0 1 3.512 2.676l9.76-6.981Zm-8.778-6.816a19.502 19.502 0 0 0-11.352-1.347l2.14 11.807a7.504 7.504 0 0 1 4.367.519l4.845-10.979Zm-11.352-1.347a19.503 19.503 0 0 0-10.157 5.247l8.391 8.579a7.505 7.505 0 0 1 3.907-2.019l-2.141-11.807Zm-10.204 5.294-.491.491 8.485 8.485.491-.491-8.485-8.485Zm-.493.493a10.365 10.365 0 0 1-3.364 2.25l4.595 11.085a22.377 22.377 0 0 0 7.259-4.854l-8.49-8.481Zm-3.364 2.25c-1.258.521-2.607.79-3.968.79v12c2.938 0 5.848-.58 8.563-1.705l-4.595-11.085Zm-3.968.79a10.38 10.38 0 0 1-3.97-.79l-4.595 11.085a22.372 22.372 0 0 0 8.565 1.705v-12Zm-3.97-.79a10.365 10.365 0 0 1-3.363-2.25l-8.49 8.481a22.377 22.377 0 0 0 7.258 4.854l4.596-11.085Zm-3.368-2.255a10.358 10.358 0 0 1-2.25-3.363l-11.084 4.595a22.36 22.36 0 0 0 4.854 7.258l8.48-8.49Zm-2.25-3.363a10.365 10.365 0 0 1-.79-3.969h-12c0 2.939.58 5.849 1.706 8.564l11.085-4.595Zm-.79-3.969c0-1.362.27-2.71.79-3.969l-11.084-4.595a22.363 22.363 0 0 0-1.705 8.564h12Zm.79-3.969a10.358 10.358 0 0 1 2.25-3.363l-8.48-8.49a22.36 22.36 0 0 0-4.854 7.258l11.085 4.595Zm2.253-3.366.49-.49-8.485-8.486-.49.491 8.485 8.485Zm.537-.538a19.496 19.496 0 0 0 5.248-10.156l-11.808-2.141a7.5 7.5 0 0 1-2.018 3.906l8.578 8.391Zm5.248-10.156a19.503 19.503 0 0 0-1.348-11.353l-10.978 4.846a7.498 7.498 0 0 1 .518 4.366l11.808 2.141Zm-1.322-11.294a19.503 19.503 0 0 0-7.156-8.576l-6.626 10.005a7.5 7.5 0 0 1 2.752 3.299l11.03-4.728Zm-7.156-8.576a19.497 19.497 0 0 0-10.69-3.242l-.047 12a7.498 7.498 0 0 1 4.11 1.247l6.627-10.005Zm-10.714-3.242h-1.39v12h1.39v-12Zm-1.39 0a10.366 10.366 0 0 1-7.329-3.035l-8.485 8.485a22.363 22.363 0 0 0 15.814 6.55v-12Zm-7.329-3.035A10.365 10.365 0 0 1 16 100.655H4a22.363 22.363 0 0 0 6.55 15.813l8.485-8.485ZM16 100.655c0-2.75 1.092-5.385 3.035-7.329l-8.485-8.485A22.364 22.364 0 0 0 4 100.655h12Zm3.035-7.329a10.364 10.364 0 0 1 7.329-3.035v-12a22.363 22.363 0 0 0-15.814 6.55l8.485 8.485Zm7.329-3.035h.736v-12h-.736v12Zm.876-.002a19.5 19.5 0 0 0 10.888-3.634l-6.98-9.76a7.5 7.5 0 0 1-4.188 1.398l.28 11.996Zm10.888-3.634a19.5 19.5 0 0 0 6.958-9.13l-11.263-4.142a7.5 7.5 0 0 1-2.676 3.512l6.981 9.76Zm6.816-8.778a19.5 19.5 0 0 0 1.347-11.352l-11.807 2.14a7.501 7.501 0 0 1-.519 4.367l10.979 4.845Zm1.347-11.352a19.5 19.5 0 0 0-5.247-10.157l-8.579 8.391a7.5 7.5 0 0 1 2.019 3.907l11.807-2.141ZM40.997 56.32l-.49-.49-8.486 8.484.49.491 8.486-8.485Zm-.493-.493a10.363 10.363 0 0 1-2.25-3.364L27.17 57.06a22.363 22.363 0 0 0 4.854 7.259l8.48-8.49Zm-2.25-3.364a10.362 10.362 0 0 1-.79-3.968h-12c0 2.938.58 5.848 1.705 8.563l11.085-4.595Zm-.79-3.968c0-1.363.269-2.711.79-3.97L27.17 39.932a22.364 22.364 0 0 0-1.705 8.565h12Zm.79-3.97a10.363 10.363 0 0 1 2.25-3.363l-8.48-8.49a22.363 22.363 0 0 0-4.855 7.258l11.085 4.596Zm2.255-3.368a10.364 10.364 0 0 1 3.363-2.25l-4.595-11.084a22.363 22.363 0 0 0-7.258 4.854l8.49 8.48Zm3.363-2.25a10.364 10.364 0 0 1 3.969-.79v-12c-2.939 0-5.85.58-8.564 1.706l4.595 11.085Zm3.969-.79c1.362 0 2.71.27 3.969.79l4.595-11.084a22.362 22.362 0 0 0-8.564-1.705v12Zm3.969.79a10.365 10.365 0 0 1 3.363 2.25l8.49-8.48a22.363 22.363 0 0 0-7.258-4.854L51.81 38.909Zm3.365 2.253.491.49 8.486-8.485-.491-.49-8.486 8.485Zm.539.537a19.5 19.5 0 0 0 10.156 5.248l2.141-11.808a7.5 7.5 0 0 1-3.906-2.018l-8.392 8.578Zm10.156 5.248c3.834.695 7.788.225 11.353-1.348L72.377 34.62a7.5 7.5 0 0 1-4.366.518l-2.14 11.808Zm8.93-.837h.654v-12H74.8v12Zm3.018-.485a19.5 19.5 0 0 0 8.576-7.156L76.39 31.842a7.5 7.5 0 0 1-3.299 2.752l4.727 11.03Zm8.576-7.156a19.5 19.5 0 0 0 3.242-10.69l-12-.047a7.5 7.5 0 0 1-1.246 4.11l10.004 6.627Zm3.242-10.714v-1.39h-12v1.39h12Zm0-1.39c0-2.749 1.092-5.385 3.036-7.329l-8.486-8.485a22.363 22.363 0 0 0-6.55 15.814h12Zm3.036-7.329A10.364 10.364 0 0 1 100 16V4a22.364 22.364 0 0 0-15.814 6.55l8.486 8.485ZM100 16c2.749 0 5.385 1.092 7.328 3.035l8.485-8.485A22.363 22.363 0 0 0 100 4v12Zm7.328 3.035a10.362 10.362 0 0 1 3.036 7.329h12c0-5.932-2.357-11.62-6.551-15.814l-8.485 8.485Zm3.036 7.329v.736h12v-.736h-12Zm0 .76a19.504 19.504 0 0 0 3.241 10.69l10.005-6.627a7.498 7.498 0 0 1-1.246-4.11l-12 .047Zm3.241 10.69a19.5 19.5 0 0 0 8.577 7.155l4.727-11.03a7.505 7.505 0 0 1-3.299-2.752l-10.005 6.626Zm8.518 7.13a19.498 19.498 0 0 0 11.352 1.347l-2.141-11.807a7.5 7.5 0 0 1-4.366-.519l-4.845 10.979Zm11.352 1.347a19.499 19.499 0 0 0 10.157-5.247l-8.391-8.579a7.503 7.503 0 0 1-3.907 2.019l2.141 11.807Zm10.204-5.294.491-.49-8.485-8.486-.491.49 8.485 8.486Zm.493-.493a10.372 10.372 0 0 1 3.364-2.25l-4.595-11.085a22.365 22.365 0 0 0-7.259 4.854l8.49 8.48Zm3.364-2.25a10.364 10.364 0 0 1 3.969-.79v-12c-2.939 0-5.849.58-8.564 1.705l4.595 11.085Zm3.969-.79c1.361 0 2.71.269 3.968.79l4.595-11.085a22.36 22.36 0 0 0-8.563-1.705v12Zm3.968.79a10.37 10.37 0 0 1 3.364 2.25l8.49-8.48a22.367 22.367 0 0 0-7.259-4.855l-4.595 11.085Zm3.369 2.255a10.362 10.362 0 0 1 2.249 3.363l11.085-4.595a22.361 22.361 0 0 0-4.854-7.258l-8.48 8.49Zm2.249 3.363c.522 1.258.79 2.607.79 3.969h12c0-2.939-.579-5.85-1.705-8.564l-11.085 4.595Zm.79 3.969c0 1.362-.268 2.71-.79 3.969l11.085 4.595a22.352 22.352 0 0 0 1.705-8.564h-12Zm-.79 3.969a10.363 10.363 0 0 1-2.249 3.363l8.48 8.49a22.36 22.36 0 0 0 4.854-7.258l-11.085-4.595Zm-2.252 3.366-.491.49 8.486 8.486.49-.491-8.485-8.485Zm-.537.538a19.504 19.504 0 0 0-5.248 10.156l11.808 2.141a7.496 7.496 0 0 1 2.018-3.906l-8.578-8.392Zm-5.248 10.156a19.503 19.503 0 0 0 1.348 11.353l10.978-4.846a7.503 7.503 0 0 1-.518-4.366l-11.808-2.14Zm.837 8.93v.654h12V74.8h-12Zm.485 3.018a19.503 19.503 0 0 0 7.156 8.576l6.626-10.004a7.502 7.502 0 0 1-2.752-3.299l-11.03 4.727Zm7.156 8.576a19.504 19.504 0 0 0 10.69 3.242l.047-12a7.502 7.502 0 0 1-4.111-1.246l-6.626 10.004Zm10.713 3.242h1.391v-12h-1.391v12Zm1.391 0c2.749 0 5.385 1.092 7.329 3.036l8.485-8.486a22.363 22.363 0 0 0-15.814-6.55v12Zm7.329 3.036A10.366 10.366 0 0 1 184 100h12c0-5.931-2.356-11.62-6.55-15.814l-8.485 8.486ZM184 100c0 2.749-1.092 5.385-3.035 7.328l8.485 8.485A22.363 22.363 0 0 0 196 100h-12Zm-3.035 7.328a10.364 10.364 0 0 1-7.329 3.036v12c5.932 0 11.62-2.357 15.814-6.551l-8.485-8.485Zm-7.329 3.036h-.736v12h.736v-12Zm-.76 0a19.505 19.505 0 0 0-10.689 3.241l6.626 10.005a7.495 7.495 0 0 1 4.111-1.246l-.048-12Zm-10.689 3.241a19.496 19.496 0 0 0-7.156 8.577l11.029 4.727a7.502 7.502 0 0 1 2.753-3.299l-6.626-10.005ZM139 100c0 21.539-17.461 39-39 39v12c28.167 0 51-22.833 51-51h-12Zm-39 39c-21.54 0-39-17.461-39-39H49c0 28.167 22.834 51 51 51v-12Zm-39-39c0-21.54 17.46-39 39-39V49c-28.166 0-51 22.834-51 51h12Zm39-39c21.539 0 39 17.46 39 39h12c0-28.166-22.833-51-51-51v12Z"/>
</svg>
